<svg width="247" height="28" viewBox="0 0 247 28" fill="none" xmlns="http://www.w3.org/2000/svg">
<path d="M23.3333 14V8.16666H25.6667V15.1667H23.3333M23.3333 19.8333H25.6667V17.5H23.3333M11.6667 15.1667C14.7817 15.1667 21 16.73 21 19.8333V23.3333H2.33334V19.8333C2.33334 16.73 8.55168 15.1667 11.6667 15.1667ZM11.6667 4.66666C12.9044 4.66666 14.0913 5.15832 14.9665 6.03349C15.8417 6.90866 16.3333 8.09565 16.3333 9.33332C16.3333 10.571 15.8417 11.758 14.9665 12.6332C14.0913 13.5083 12.9044 14 11.6667 14C10.429 14 9.24202 13.5083 8.36685 12.6332C7.49168 11.758 7.00001 10.571 7.00001 9.33332C7.00001 8.09565 7.49168 6.90866 8.36685 6.03349C9.24202 5.15832 10.429 4.66666 11.6667 4.66666ZM11.6667 17.3833C8.20168 17.3833 4.55001 19.0867 4.55001 19.8333V21.1167H18.7833V19.8333C18.7833 19.0867 15.1317 17.3833 11.6667 17.3833ZM11.6667 6.88332C11.0169 6.88332 10.3937 7.14145 9.93427 7.60091C9.4748 8.06038 9.21668 8.68354 9.21668 9.33332C9.21668 9.9831 9.4748 10.6063 9.93427 11.0657C10.3937 11.5252 11.0169 11.7833 11.6667 11.7833C12.3165 11.7833 12.9396 11.5252 13.3991 11.0657C13.8586 10.6063 14.1167 9.9831 14.1167 9.33332C14.1167 8.68354 13.8586 8.06038 13.3991 7.60091C12.9396 7.14145 12.3165 6.88332 11.6667 6.88332Z" fill="black"/>
<path d="M97.5 24.5L92.2663 19.257M95.1667 12.25C95.1667 14.8801 94.1219 17.4024 92.2622 19.2622C90.4024 21.1219 87.8801 22.1667 85.25 22.1667C82.6199 22.1667 80.0976 21.1219 78.2379 19.2622C76.3781 17.4024 75.3333 14.8801 75.3333 12.25C75.3333 9.61995 76.3781 7.0976 78.2379 5.23787C80.0976 3.37813 82.6199 2.33334 85.25 2.33334C87.8801 2.33334 90.4024 3.37813 92.2622 5.23787C94.1219 7.0976 95.1667 9.61995 95.1667 12.25V12.25Z" stroke="black" stroke-width="2" stroke-linecap="round"/>
<path d="M154.167 3.5C150.945 3.5 148.333 6.08533 148.333 9.275C148.333 11.8498 149.354 17.9608 159.403 24.1383C159.583 24.2479 159.789 24.3058 160 24.3058C160.211 24.3058 160.417 24.2479 160.597 24.1383C170.646 17.9608 171.667 11.8498 171.667 9.275C171.667 6.08533 169.054 3.5 165.833 3.5C162.612 3.5 160 7 160 7C160 7 157.388 3.5 154.167 3.5Z" stroke="black" stroke-width="2" stroke-linecap="round" stroke-linejoin="round"/>
<path d="M244.236 19.1926H227.952L228.77 17.5273L242.354 17.5027C242.814 17.5027 243.207 17.1746 243.289 16.7207L245.171 6.19062C245.22 5.91445 245.146 5.63008 244.966 5.41406C244.876 5.30775 244.765 5.22211 244.64 5.16309C244.514 5.10407 244.377 5.07308 244.238 5.07227L226.957 5.01484L226.809 4.32031C226.716 3.87734 226.317 3.55469 225.863 3.55469H221.639C221.383 3.55469 221.137 3.65638 220.956 3.8374C220.775 4.01841 220.673 4.26393 220.673 4.51992C220.673 4.77592 220.775 5.02143 220.956 5.20245C221.137 5.38346 221.383 5.48516 221.639 5.48516H225.081L225.727 8.55312L227.315 16.2449L225.27 19.5836C225.164 19.727 225.1 19.8972 225.085 20.075C225.071 20.2528 225.106 20.4312 225.188 20.5898C225.352 20.9152 225.683 21.1203 226.049 21.1203H227.766C227.4 21.6065 227.203 22.1988 227.203 22.8074C227.203 24.3551 228.461 25.6129 230.009 25.6129C231.556 25.6129 232.814 24.3551 232.814 22.8074C232.814 22.1977 232.612 21.6043 232.251 21.1203H236.656C236.29 21.6065 236.092 22.1988 236.093 22.8074C236.093 24.3551 237.35 25.6129 238.898 25.6129C240.446 25.6129 241.704 24.3551 241.704 22.8074C241.704 22.1977 241.501 21.6043 241.14 21.1203H244.238C244.769 21.1203 245.204 20.6883 245.204 20.1551C245.202 19.8994 245.099 19.6546 244.918 19.4743C244.737 19.294 244.491 19.1927 244.236 19.1926ZM227.359 6.91797L243.104 6.96992L241.561 15.6051L229.194 15.627L227.359 6.91797ZM230.009 23.6715C229.533 23.6715 229.145 23.2832 229.145 22.8074C229.145 22.3316 229.533 21.9434 230.009 21.9434C230.484 21.9434 230.873 22.3316 230.873 22.8074C230.873 23.0366 230.782 23.2564 230.62 23.4184C230.458 23.5805 230.238 23.6715 230.009 23.6715ZM238.898 23.6715C238.422 23.6715 238.034 23.2832 238.034 22.8074C238.034 22.3316 238.422 21.9434 238.898 21.9434C239.374 21.9434 239.762 22.3316 239.762 22.8074C239.762 23.0366 239.671 23.2564 239.509 23.4184C239.347 23.5805 239.127 23.6715 238.898 23.6715Z" fill="black"/>
</svg>
